# xmcd
#
# Track frame offsets:
# 150
# 27182
# 42960
# 60840
# 83615
# 96530
# 121437
# 143472
# 167482
# 184860
# 210517
# 239085
# 264445
# 286960
# 317050
#
# Disc length: 4534 seconds
#
#
# Revision: 0
# Processed by: cddbd v1.5.2PL0 Copyright (c) Steve Scherf et al.
# Submitted via: FreeRIP 2.96 
#
DISCID=ca11b40f
DTITLE=Wiehe and Forsberg - Dylan på svenska
DYEAR=2007
DGENRE=Folk
TTITLE0=Spanska Stövlar
TTITLE1=Jag ska va med dig i natt
TTITLE2=När mitt mästerverk blir klart
TTITLE3=För att jag älskar dig
TTITLE4=Jag har tänkt på dig
TTITLE5=Ödets sista bud
TTITLE6=Utan tvekan min Marie
TTITLE7=Där anar jag din hand
TTITLE8=Allra minst en morgon
TTITLE9=Blinde Will McTell
TTITLE10=Adjö, Angelina
TTITLE11=Ni som tjänar på krig
TTITLE12=Sakta lägger båten ut från land
TTITLE13=bara om min älskade väntar
TTITLE14=Jag ska bli fri
EXTD=
EXTT0=
EXTT1=
EXTT2=
EXTT3=
EXTT4=
EXTT5=
EXTT6=
EXTT7=
EXTT8=
EXTT9=
EXTT10=
EXTT11=
EXTT12=
EXTT13=
EXTT14=
PLAYORDER=
